<?xml version="1.0" encoding="UTF-8"?><svg id="Layer_1" xmlns="http://www.w3.org/2000/svg" viewBox="0 0 680.54 826.63"><defs><style>.cls-1{fill:#010101;}.cls-2{fill:#e67701;}@media (prefers-color-scheme: dark){.cls-1{fill:#ffffff;}}</style></defs><g id="N0fVYm.tif"><path class="cls-1" d="M417.12,826.15c-.39-.09-2.71-2.24-3.55-2.69-2.83-28.22-2.8-56.96-5.45-85.23l-5.66,10.32-25.34,58.58c-3.5,5.04-16.16,4.62-21.98,4.09-4.47-.41-6.3-1.47-8.65-5.33-7.3-11.98-11.71-30.6-18.6-43.34l-12.15-25.29-5.45,84.97c-.43,1.15-1.1,2.17-2.16,2.84-2.35,1.48-20.5,1.7-23.85,1.08-7.87-1.47-3.73-16.92-3.53-22.46.92-25.71,2.6-51.24,4.05-76.87.44-7.77-.32-35.18,2.92-40.04.44-.66,1.36-1.64,2.05-1.94,2.12-.94,26-1,29.39-.46,2.35.37,4.09,1.66,5.57,3.42l35.74,84.14,2.69,2.31,36.47-86.44c.91-.97,2.03-2.23,3.26-2.73,3.08-1.24,25.08-1.36,29.26-.81,3.84.51,5.04,2.79,5.47,6.52,1.41,35.35,3.61,70.61,4.93,105.96.28,7.49,2.42,18.54,1.01,25.91-.21,1.1-1.72,3.52-2.47,3.52-5.91,0-19.2,1.08-23.98,0Z"/><path class="cls-1" d="M137.61,684.5c2.9-.85,22.93-.68,26.79-.23,1.83.21,2.91.47,4.45,1.54,2.59,1.8,10.49,16.31,12.81,20.16,3.96,6.56,9.48,18.94,13.73,24.23.79.98,1.52,2.11,2.96,2.1l2.37-1.68c7.63-12.45,14.41-27.37,22.68-39.25,2.61-3.75,3.75-6.5,8.88-7.1,4.12-.48,23.35-.57,26.55.47s3.74,3.45,2.41,6.5c-11.45,18.58-24.86,36.23-35.84,55.07-2.36,4.05-6.62,8.49-3.42,13.25l39.26,59.63c.87,1.81,1.04,3.98-.44,5.48-2.09,2.1-21.49,1.89-25.53,1.51-5.41-.51-7.08-1.46-10.27-5.71-8.56-11.42-14.98-28.34-23.7-39.23-2.26-2.82-3.65-2.82-5.91,0-8.7,10.87-15.21,27.9-23.7,39.23-2.78,3.71-4.5,5.13-9.31,5.67-4.05.46-21.34.59-24.52-.45-2.4-.78-3.53-2.21-2.78-4.8l41.57-65.35c-12.61-23.42-29.9-44.33-42.57-67.62.19-1.01,2.48-3.12,3.54-3.43Z"/><path class="cls-1" d="M260.58,527.74c92.84-8.45,96.82,141.36-2.28,132.56-72.35-6.43-74.53-125.57,2.28-132.56ZM260.52,553.65c-37.25,5.78-38.9,87.4,11.64,81.57,42.31-4.88,40.81-89.71-11.64-81.57Z"/><path class="cls-1" d="M348.69,532.93c.41-1.4,4.07-3.06,5.63-3.17,37.44.24,97.84-6.54,91.17,50.02-1.89,16.05-19.78,35.57-36.36,35.57h-29.97c-.11,0-1.5,1.39-1.5,1.5v37.96c0,.21-2.5,2.74-3.02,2.98-1.83.83-19.8,1-22.43.49-1.1-.21-3.52-1.72-3.52-2.47v-122.88ZM399.14,553.41c-5.58-.75-13.99,0-19.98,0-.11,0-1.5,1.39-1.5,1.5v35.96c0,.11,1.39,1.5,1.5,1.5h16.98c.95,0,7.05-1.95,8.48-2.5,18.61-7.24,14.12-33.83-5.49-36.46Z"/><path class="cls-1" d="M492.55,654.82c-.91,5.03-18.02,3.92-22.52,3.54-2.99-.25-5.77-.18-6.21-3.73l-.29-117.74c0-3.08.81-6.65,4.49-6.5,36.36.03,95.85-8.81,92.51,45.56-1.88,30.73-26.55,40.06-53.49,40.42-1.93.03-14.49-2.89-14.49.5-1.43,11.26,1.93,27.34,0,37.96ZM494.05,553.41c-.33.51-1.5,1.23-1.5,1.5v34.97c0,3.73,16.25,2.57,19.2,2.22,15.11-1.82,24.54-13.34,17.95-28.38-2.19-5-10.42-10.31-15.67-10.31h-19.98Z"/><path class="cls-1" d="M39.77,527.72c12.91-1.54,26.84.11,38.5,5.9,3.8,1.89,13.42,6.8,11.16,11.77-.7,1.54-7.65,11.27-9.07,12.94-1.22,1.43-2.37,3-4.06,3.93-8.57-4.85-16.14-11.2-26.77-10.86-16.35.52-23.43,15.34-7.85,24.8,18.63,11.31,50.86,10.74,53.28,40.62,3.71,45.77-56.48,53.84-86.86,33.92-2.16-1.42-7.86-5.51-8.11-7.94s11.73-18.84,13.72-19.34,11.9,7.54,15.6,9.06c11.73,4.83,39.18,4.85,35.41-13.44-2.09-10.13-22.15-13.55-30.72-17.22-20.17-8.66-33.21-19.45-29.73-43.68,2.42-16.83,19.42-28.53,35.48-30.45Z"/><path class="cls-1" d="M552.99,799.17c4.66,1.34,4.49,21.37,2.58,24.32-.98,1.52-7.43,2.55-9.54,2.69-19.98,1.26-42.56-1.28-63.03-1.08-5.6.06-11.25,2.46-16.94-.94l-.33-137.21c.2-.79.79-1.16,1.41-1.59,2.68-1.9,28.3-1.98,29.91.91.16.29,1.49,6.17,1.49,6.5v104.9c0,.11,1.39,1.5,1.5,1.5h52.95Z"/><path class="cls-1" d="M625.41,583.38l22.8-47.65c.82-1.27,2.43-3.67,3.64-4.35,1.67-.95,14.96-2,18.04-2.01,4.09-.01,11.68.09,10.56,5.54-12.47,26.38-28.5,51.28-41.34,77.63-1.06,11.33-.91,22.95-.73,34.32.08,4.86,3.5,11.12-4.51,12.39-5.49.87-22.71,1.86-24.2-4.65-2.31-10.08,1.24-26.94-.17-37.79-9.68-25.56-26.21-48.8-38.52-73.37-2.28-4.55-8.49-12.94-.03-14.05,4.67-.61,23.23-.14,26.49,2.57l25.16,49.77,2.83,1.65Z"/><path class="cls-1" d="M143.89,633.34h50.45c4.39,0,3.86,17.18,3.4,20.42-.27,1.96-.67,3.69-2.82,4.11-9.24-.15-77.64,2.2-80.11-.96-.93-1.19-1-2.6-.96-4.03l.56-120.44c2-4.23,20.27-3.61,24.54-2.56,3.43.84,4.05,1.88,4.69,5.3-.06,28.87.91,57.85.29,86.71-.09,3.93-2.16,7.25-.04,11.45Z"/><path class="cls-2" d="M264.57.25c54.98-1.41,108.88,3.56,163.5,4.74,45.02.97,90.19-.94,134.9,4.97,56.46,7.46,56.55,51.37,58.5,97.35,3.51,82.98-6.72,160.06-9.07,241.76-2.01,69.89,13.67,119.82-74.39,130.41-76.58,9.2-153.3.97-229.76-2-52.5-2.04-105.31-1.09-157.87-3.98-25.19-1.38-50.27.4-72.72-13.2-31.58-19.12-23.88-64.51-25.63-96.25-1.26-22.9-4.28-45.94-5.08-68.85-1.18-33.78,1.43-67.38,2.09-100.9.81-41.7-3.72-85.84-1.09-126.97,2.45-38.25,24.3-59.06,62.44-61.44C160.61,2.77,214.06,1.54,264.57.25ZM129.16,436.24c.74.42,9.72-.84,12.28-.75,10.59.38,22.2,2.64,32.88,3.07,41.21,1.68,83.6-1.18,124.96-.08,78.13,2.08,166.14,15.81,243.24.56,39.32-7.78,32.71-27.77,33.9-61,3.24-90.46,10.59-180.92,6.99-271.65-.66-16.67,2.57-46.51-16.58-54.36-7.99-3.27-13.1-1.26-20.76-2.21-6.24-.77-12.92-4.29-20.08-4.9-39.82-3.36-80.89-2.86-120.83-4.05-59.84-1.79-117.67-5.04-177.91-3-26.4.9-53.73,4.27-79.84,5.08-15.65.49-35.61-4.49-48.97,5.98-9.33,7.31-12.75,17.89-13.55,29.41-2.3,33.05.51,70.32.08,103.98-.44,34.82-3.44,69.84-2.08,104.9,1.02,26.32,5.91,52.6,7.02,78.89.62,14.65-2.74,40.3,3.19,52.76,2.1,4.41,9.88,13.23,14.55,14.41,6.57,1.67,15.43.03,20.56,1.27.74.18.67,1.55.93,1.7Z"/><path class="cls-2" d="M329.05,168.45c-11.62-13.03.1-25.19,10.12-34.65,14.65-13.84,38.94-28.67,59.85-26.82,26.76,2.37,30.3,46.54,25.94,66.65-2.62,12.08-13.69,26.02-11.12,37.41,1.07,4.74,13.87,9.5,18.29,12.67,10.13,7.26,15.75,19.3,10.34,31.37-3.98,8.87-13.89,13.66-18.29,21.67-8.31,15.11-.49,39.44-1.52,56.42-1.6,26.15-17.71,58.92-48.5,55.41-15.37-1.75-18.59-21.91-5.76-28.74,8.21-4.37,12.49-.52,18.69-11.28,10.08-17.49.62-47.65,2.68-68.25,1.24-12.41,7.74-26.58,16.84-35.09-21.41-10.79-31.7-25.84-25.45-50.44,2.65-10.41,11.77-20.28,13.24-29.72.72-4.64,1.64-22.47-4.31-23.26s-22.01,11.81-26.89,16.03c-10.34,8.94-19.8,26.71-34.15,10.62Z"/><path class="cls-2" d="M269.52,97.09c8.13-1.15,13.41,2.16,18.06,8.43s7.39,12.85,1.18,19.82c-5.57,6.26-10.57,2.66-14.77,14.2-9.84,27.01,12.03,50.92,5.07,75-3.92,13.57-14.71,23.96-25.26,32.67,15.44,9.97,28.79,27.75,27.94,46.94-.63,14.34-10,32.93-7.92,45.91,1.74,10.91,21.88,7.89,20.99,25.06-.9,17.4-22.55,16-33.95,8.88-33.29-20.82-11.58-52.57-12.28-79.83-.63-24.21-34.88-30.38-34.84-48.96.04-19.7,27.86-23.98,31.58-38.43,2.9-11.26-5.58-26.07-6.56-37.46-1.95-22.78,1.64-68.1,30.75-72.23Z"/><path class="cls-2" d="M474.22,156.16c2.42-.09,5.48,1.04,7.9,1.59,27.24,22.6,49.4,51.26,75.38,75.47,5.31,7.03,2.49,17.04-2.48,23.51-24.12,20.12-47.31,51.5-71.45,70.42-6.54,5.12-12.06,6.69-19.7,2.7-9.57-5.01-13.3-13.01-7.49-22.89,2.19-3.72,11.55-12.93,15.17-16.8,11.83-12.65,25.07-25.27,37.46-37.46,3.43-3.37,8.08-5.59,10.34-10.47l-56.79-55.91c-11.79-9.46-.69-29.67,11.66-30.14Z"/><path class="cls-2" d="M173.21,317.3c-11.36-10.65-24.11-24.13-34.83-35.6-8.06-8.62-28.04-28.23-30-38.93-.73-3.99-.42-7.23,1.06-11.02,2.9-7.46,30.01-33.94,37.43-41.5,8.22-8.38,23.93-26.46,32.49-32.45,5.93-4.16,12.08-4.16,17.99.01,7.26,5.13,11.94,13.56,8.4,22.37-2,4.99-28.47,29.89-34.34,35.59-8.25,8.01-17.21,15.52-25.43,23.59,7.13,8.7,14.76,17.09,22.39,25.35,7.65,8.28,35.81,34.41,38,42.91,3.22,12.47-8.25,25.02-20.91,19.91-2.7-1.09-9.65-7.81-12.24-10.24Z"/><path class="cls-2" d="M325.45,205.98c13.77-2.77,20.58,8.44,18.02,21.03-1.44,7.06-11.93,14.3-10.78,21.16.52,3.11,10.65,8.7,13.5,11.54,14.47,14.39,13.09,34.42,2.92,50.86-7.16,11.57-18.55,28-33.31,17.5-14.88-10.57,6.91-25.77,9.46-35.37,4.21-15.87-10.02-16.09-17.52-25.51-10.87-13.66-7.73-26-.17-40.13,3.15-5.88,11.21-19.75,17.89-21.09Z"/></g></svg>